<?xml version="1.0" encoding="UTF-8"?>
<svg version="1.1" xmlns="http://www.w3.org/2000/svg" width="1024" height="1024">
<path d="M0 0 C337.92 0 675.84 0 1024 0 C1024 337.92 1024 675.84 1024 1024 C686.08 1024 348.16 1024 0 1024 C0 686.08 0 348.16 0 0 Z " fill="#008372" transform="translate(0,0)"/>
<path d="M0 0 C1.28383416 -0.00709439 2.56766832 -0.01418877 3.89040655 -0.02149814 C7.44752666 -0.04041844 11.00395881 -0.02818868 14.5610615 -0.01077521 C18.39957019 0.00259711 22.23797811 -0.01283771 26.07647705 -0.02459717 C33.59324498 -0.04297869 41.109753 -0.03445834 48.62651283 -0.01650894 C54.73475564 -0.00248575 60.84292787 0.00141047 66.95118523 -0.00195122 C67.8203921 -0.00242866 68.68959898 -0.0029061 69.58514545 -0.00339801 C71.35088561 -0.00442434 73.11662575 -0.00547969 74.88236587 -0.00656378 C90.49653467 -0.01513174 106.11057794 0.00154784 121.72471619 0.03126526 C136.87939221 0.06010786 152.03388743 0.06718399 167.18858337 0.05177307 C183.68864874 0.03501703 200.18862825 0.03097021 216.68869585 0.04848343 C218.44765022 0.05032784 220.20660461 0.05216256 221.96555901 0.0539875 C222.83101614 0.05489959 223.69647328 0.05581168 224.58815639 0.05675141 C230.69034755 0.06236015 236.79249685 0.05904654 242.89468575 0.05244255 C250.32931215 0.04471602 257.76376049 0.05143746 265.19835097 0.07661759 C268.99242527 0.08912799 272.78622212 0.09524068 276.58030701 0.08407593 C280.69043359 0.07220939 284.7998289 0.09126284 288.90991211 0.11352539 C290.11301295 0.10528462 291.31611379 0.09704386 292.55567223 0.08855337 C300.62448446 0.16958826 300.62448446 0.16958826 304.5889349 2.54005527 C307.04279588 5.38272196 308.32950144 7.18922571 308.49327087 10.9924469 C307.53753903 21.66799915 305.93726021 32.24844624 304.3556366 42.84642029 C303.43681766 49.00785249 302.53429645 55.1716802 301.62974548 61.33522034 C301.3486795 63.24688744 301.3486795 63.24688744 301.06193542 65.19717407 C299.16126816 78.14607139 297.32988694 91.10432461 295.51646423 104.06568909 C295.27474991 105.79071152 295.27474991 105.79071152 295.02815247 107.55058289 C293.09084195 121.38036564 291.17079674 135.21249142 289.26156807 149.0461731 C288.3059471 155.96949442 287.34908677 162.89264435 286.39146423 169.81568909 C286.28549046 170.58191589 286.17951668 171.3481427 286.07033157 172.1375885 C282.91290121 194.95900274 279.65527441 217.76254162 276.23057556 240.54566956 C274.58067928 251.53215119 272.97314289 262.52231643 271.44615173 273.52662659 C271.28783371 274.66134903 271.12951569 275.79607147 270.96640015 276.96517944 C270.21314044 282.36450123 269.46735526 287.76461613 268.73643494 293.16700745 C268.46949405 295.08771642 268.20218087 297.0083737 267.93443298 298.92897034 C267.82223419 299.78264191 267.7100354 300.63631348 267.59443665 301.51585388 C265.62142982 315.4526129 265.62142982 315.4526129 260.82896423 320.12818909 C257.3652103 322.25972997 255.60332766 322.75263201 251.55732727 322.7484436 C250.02603432 322.7505056 250.02603432 322.7505056 248.46380615 322.75260925 C247.33955734 322.74901398 246.21530853 322.7454187 245.05699158 322.74171448 C243.87651749 322.7418605 242.6960434 322.74200653 241.47979736 322.74215698 C238.23826649 322.74157868 234.99677848 322.73655492 231.75525618 322.72958302 C228.36931513 322.72334215 224.98337328 322.72274511 221.59742737 322.72155762 C215.18365413 322.71844647 208.76989789 322.710236 202.35613215 322.70020813 C195.05513877 322.68904027 187.75414458 322.68353484 180.45314479 322.67851269 C165.43257513 322.66805321 150.41202138 322.65045795 135.39146423 322.62818909 C135.27101746 321.42307678 135.15057068 320.21796448 135.026474 318.97633362 C134.8580857 317.36285692 134.68936685 315.7494147 134.52037048 314.13600159 C134.44226135 313.34556458 134.36415222 312.55512756 134.28367615 311.74073792 C132.24345761 292.55776747 123.76145495 274.50498574 108.9783783 261.90504456 C92.45226291 248.60787787 74.03453631 245.24314357 53.39146423 246.62818909 C48.20087856 247.34261124 43.31313313 248.85430136 38.39146423 250.62818909 C37.34861267 251.00201721 36.30576111 251.37584534 35.23130798 251.76100159 C22.22170842 256.83054877 12.26133864 263.98851583 2.39146423 273.62818909 C1.73404236 274.22373596 1.07662048 274.81928284 0.39927673 275.43287659 C-11.23667934 286.21088198 -20.47509594 302.57020781 -22.15150452 318.33131409 C-22.2381134 319.13730042 -22.32472229 319.94328674 -22.41395569 320.7736969 C-22.47816711 321.38567932 -22.54237854 321.99766174 -22.60853577 322.62818909 C-27.35904396 322.72732482 -32.10894552 322.79978173 -36.86024475 322.84791565 C-38.47526035 322.86798801 -40.09020366 322.89525239 -41.70497131 322.9299469 C-44.03108078 322.97866123 -46.3562267 323.00120063 -48.68275452 323.01881409 C-49.40065659 323.03945923 -50.11855865 323.06010437 -50.85821533 323.08137512 C-54.40036256 323.08294814 -56.44194177 322.73117498 -59.47889709 320.85377502 C-62.41772278 317.78254552 -63.59272872 315.94938103 -63.64442444 311.62852478 C-63.54363586 310.49194427 -63.44284729 309.35536377 -63.33900452 308.18434143 C-63.22862854 306.93449463 -63.11825256 305.68464783 -63.00453186 304.39692688 C-62.4188978 298.823384 -61.7104884 293.27786307 -60.92103577 287.72975159 C-60.65939636 285.85071388 -60.65939636 285.85071388 -60.39247131 283.93371582 C-59.90635453 280.44452946 -59.41421174 276.95621599 -58.92103577 273.46802139 C-58.49718719 270.46401011 -58.07711921 267.45947495 -57.65704346 264.45493412 C-54.73777861 243.5780147 -51.77067704 222.70781701 -48.80909729 201.83686829 C-48.3294588 198.45670468 -47.84995941 195.07652137 -47.37050438 191.69633174 C-46.88871348 188.29974788 -46.40684022 184.9031757 -45.92494202 181.50660706 C-45.82927822 180.83231328 -45.73361443 180.15801951 -45.63505173 179.4632926 C-44.48238392 171.33927999 -43.32776623 163.21554874 -42.17015457 155.09223908 C-41.3426364 149.28496168 -40.51702214 143.47741478 -39.69197083 137.66978645 C-39.34997919 135.26524545 -39.00726974 132.86080642 -38.66377258 130.45648003 C-36.81725326 117.52993609 -35.04241904 104.6076214 -33.60853577 91.62818909 C-34.84801971 91.63707153 -36.08750366 91.64595398 -37.36454773 91.65510559 C-49.04724683 91.73620307 -60.7298888 91.79616025 -72.41280556 91.83543777 C-78.4190863 91.85630963 -84.42513974 91.88462055 -90.43128967 91.9299469 C-96.22790638 91.97341806 -102.02430449 91.99732922 -107.82107162 92.00769806 C-110.03227047 92.01508707 -112.24345739 92.02951605 -114.45456314 92.05110931 C-117.55253677 92.08015949 -120.64960793 92.08414432 -123.74769592 92.08229065 C-124.66119812 92.09667175 -125.57470032 92.11105286 -126.5158844 92.12586975 C-132.05496207 92.09002321 -135.22118876 91.3343309 -139.60853577 87.62818909 C-142.58872653 84.24526984 -144.44273771 82.00983954 -144.98353577 77.50318909 C-144.51050981 72.61525416 -142.84652545 69.30590577 -139.60853577 65.62818909 C-134.88758092 61.8112578 -130.20649667 62.19360242 -124.41810608 62.21168518 C-122.88323296 62.19880714 -122.88323296 62.19880714 -121.31735229 62.18566895 C-117.94038514 62.16060494 -114.56371243 62.15623034 -111.18666077 62.15162659 C-108.84206746 62.13731964 -106.49748258 62.12156318 -104.15290833 62.10441589 C-97.98511933 62.06255431 -91.81738263 62.03755974 -85.64949036 62.016922 C-75.76218278 61.98110476 -65.87500395 61.92028884 -55.98783112 61.85843277 C-52.52605221 61.8392754 -49.0643078 61.82759461 -45.60249329 61.81700134 C-43.49545719 61.8067955 -41.38842181 61.79643811 -39.28138733 61.78590393 C-38.31101028 61.7848616 -37.34063324 61.78381927 -36.34085083 61.78274536 C-35.02439827 61.77456535 -35.02439827 61.77456535 -33.68135071 61.76622009 C-32.91446049 61.763664 -32.14757027 61.7611079 -31.35744095 61.75847435 C-29.58016639 61.81736046 -29.58016639 61.81736046 -28.60853577 60.62818909 C-28.32618139 59.13071213 -28.10096801 57.62239084 -27.90003967 56.11183167 C-27.76965302 55.1502565 -27.63926636 54.18868134 -27.50492859 53.19796753 C-27.29711258 51.62622017 -27.29711258 51.62622017 -27.08509827 50.02272034 C-26.78338594 47.82019552 -26.48129036 45.61772318 -26.17884827 43.41529846 C-25.7049666 39.93109085 -25.23431342 36.446535 -24.77064514 32.96095276 C-24.32241404 29.60517999 -23.86092519 26.25143753 -23.39759827 22.89772034 C-23.19585495 21.34115471 -23.19585495 21.34115471 -22.99003601 19.75314331 C-21.96972326 12.45794099 -20.6904209 6.54690884 -14.6540786 1.69148171 C-10.16745333 -0.64070878 -4.93529628 -0.04864208 0 0 Z " fill="#FEFEFE" transform="translate(330.60853576660156,327.37181091308594)"/>
<path d="M0 0 C13.50026255 -0.09288411 27.00044845 -0.16385856 40.50096607 -0.20724869 C46.77053467 -0.22807901 53.03988383 -0.25631372 59.30932617 -0.30175781 C65.36531911 -0.34537753 71.42110163 -0.36917134 77.47723961 -0.37950897 C79.78199257 -0.3868714 82.08673466 -0.40124822 84.39139748 -0.42292023 C87.6320299 -0.452168 90.87180462 -0.45594702 94.11254883 -0.45410156 C95.05482834 -0.46848267 95.99710785 -0.48286377 96.96794128 -0.49768066 C107.16355462 -0.43529282 117.34522341 3.10380487 125 10 C130.05890526 15.81022782 133.7394278 22.50344702 137.48931885 29.19641113 C138.88234792 31.68231058 140.28790641 34.16104757 141.69290161 36.64019775 C142.41390707 37.91245971 143.13434483 39.18504354 143.85421753 40.45794678 C147.2273996 46.41815498 150.66597716 52.33921705 154.125 58.25 C154.69484619 59.22469238 155.26469238 60.19938477 155.85180664 61.20361328 C156.99632271 63.16040319 158.14125813 65.11694787 159.28662109 67.07324219 C162.1738118 72.00508063 165.0564482 76.9395733 167.9375 81.875 C168.50968262 82.85509033 169.08186523 83.83518066 169.67138672 84.8449707 C174.69603435 93.46075942 179.68581971 102.09655379 184.64916992 110.74780273 C187.40354207 115.54115872 190.17222193 120.31834276 193.0625 125.03125 C202.48274388 140.42074093 203.99868828 151.94504868 201.20703125 169.80859375 C200.92755142 171.65136147 200.92755142 171.65136147 200.64242554 173.53135681 C200.14195861 176.82362739 199.63581768 180.11491556 199.12646103 183.40581512 C198.28718057 188.83691409 197.45942796 194.26979398 196.62932014 199.70230103 C196.32112762 201.7173268 196.01194896 203.73219975 195.70274353 205.74707031 C194.55391019 213.26035565 193.45218422 220.77710609 192.4296875 228.30859375 C192.21121545 229.89461729 191.99271133 231.48063641 191.77416992 233.06665039 C191.48220921 235.19075965 191.19513483 237.31483895 190.92520142 239.44186401 C189.25971908 252.55947791 189.25971908 252.55947791 185 257 C179.85718825 260.45526463 176.64955308 261.4923623 170.31640625 261.390625 C169.61603745 261.38496521 168.91566864 261.37930542 168.19407654 261.37347412 C165.98282055 261.3512922 163.77325627 261.30113806 161.5625 261.25 C160.05275797 261.22991115 158.54299025 261.21166458 157.03320312 261.1953125 C153.35493001 261.15148947 149.67763044 261.08259341 146 261 C145.90501221 260.34104736 145.81002441 259.68209473 145.7121582 259.00317383 C143.18236514 240.99176695 143.18236514 240.99176695 137 224 C136.5359375 223.04222656 136.071875 222.08445312 135.59375 221.09765625 C126.2876015 203.05461833 113.27137351 192.2355482 94 186 C74.01957235 180.21855692 52.52173422 184.16110663 34.58984375 193.9296875 C11.6699495 206.9358418 -4.00347877 226.90887289 -11.30859375 252.1328125 C-12.01398275 255.05798498 -12.50531999 258.03191992 -13 261 C-20.92 261 -28.84 261 -37 261 C-36.41467476 249.02712474 -35.06830607 237.35812423 -33.3046875 225.5078125 C-33.03306184 223.64870369 -32.7620554 221.78950431 -32.49162292 219.93022156 C-31.92085696 216.01402025 -31.34625007 212.0984116 -30.76834106 208.18325806 C-29.86591021 202.06929 -28.97189674 195.95411149 -28.07983398 189.83862305 C-27.93219573 188.82661174 -27.78455748 187.81460043 -27.63244534 186.77192211 C-27.33592094 184.73928931 -27.03942062 182.70665301 -26.74294472 180.67401314 C-26.30241242 177.65570721 -25.86103717 174.63752556 -25.41947937 171.61936951 C-23.23704738 156.69222912 -21.12365804 141.75689906 -19.0625 126.8125 C-17.0525078 112.27031301 -14.91960169 97.75461268 -12.63635254 83.25283813 C-11.04161106 73.10821158 -9.55967051 62.9530133 -8.17578125 52.77734375 C-8.02060028 51.63640762 -7.86541931 50.4954715 -7.70553589 49.31996155 C-6.94406833 43.70345116 -6.19091724 38.085937 -5.44726562 32.46704102 C-5.16930168 30.39468987 -4.89130822 28.32234269 -4.61328125 26.25 C-4.49471268 25.33576767 -4.3761441 24.42153534 -4.25398254 23.479599 C-3.18810081 15.57677177 -1.62152515 7.80491297 0 0 Z " fill="#FDFEFE" transform="translate(658,389)"/>
<path d="M0 0 C9.41269549 7.40465379 14.59145967 16.58687901 18.34375 27.84375 C18.57550665 31.38125232 18.52892739 34.92444797 18.53125 38.46875 C18.54349609 39.42910156 18.55574219 40.38945313 18.56835938 41.37890625 C18.60135912 57.59278288 12.32859798 71.92000191 0.984375 83.5078125 C-12.89371764 95.78458676 -28.3276662 99.91347644 -46.43896484 99.0390625 C-57.01011256 98.10788895 -66.82900743 91.48999222 -74.0234375 83.9609375 C-84.03044485 70.98534424 -85.25762759 55.60294796 -83.65625 39.84375 C-80.65135345 25.15818811 -70.09193384 11.68205275 -58.14453125 3.0234375 C-52.61338696 -0.43244229 -46.81598805 -3.03501571 -40.65625 -5.15625 C-40.00140625 -5.383125 -39.3465625 -5.61 -38.671875 -5.84375 C-26.02499799 -9.60645721 -10.93892521 -7.24526215 0 0 Z " fill="#FDFEFE" transform="translate(755.65625,608.15625)"/>
<path d="M0 0 C9.13091991 6.81076813 13.83278383 16.12725774 17.3828125 26.77734375 C19.15451758 47.11382688 15.84356092 63.10899215 2.4765625 79.05078125 C-7.40114987 89.61669489 -21.78831392 97.35010763 -36.3515625 98.1484375 C-50.81233718 98.50127869 -61.8225168 96.05203994 -72.6171875 85.77734375 C-83.09632738 74.98065418 -86.02335199 61.34055943 -85.89453125 46.7265625 C-84.67384382 29.34466127 -74.62795699 15.52771245 -61.91796875 4.41796875 C-44.22610315 -9.32228308 -19.17345011 -12.29144372 0 0 Z " fill="#FDFEFE" transform="translate(419.6171875,609.22265625)"/>
<path d="M0 0 C7.58038432 -0.12690954 15.16049408 -0.21439808 22.74169922 -0.2746582 C25.31992837 -0.2997824 27.89808643 -0.33388759 30.47607422 -0.37719727 C34.18474886 -0.43793664 37.89248075 -0.46623197 41.6015625 -0.48828125 C42.75177887 -0.51408768 43.90199524 -0.5398941 45.08706665 -0.56648254 C54.02899248 -0.56960743 54.02899248 -0.56960743 57.57983398 2.22900391 C59.74193195 4.7045221 61.50860412 6.96922177 63.12109375 9.82421875 C63.65645752 10.75758057 64.19182129 11.69094238 64.7434082 12.65258789 C65.3024585 13.65410889 65.86150879 14.65562988 66.4375 15.6875 C67.0358667 16.73607178 67.6342334 17.78464355 68.25073242 18.86499023 C69.52230803 21.09391762 70.78920209 23.32552133 72.05175781 25.55957031 C74.63800789 30.12666756 77.25849953 34.67358524 79.88305664 39.21875 C81.16208017 41.43531412 82.43735523 43.65404574 83.70874023 45.875 C86.3880826 50.54547194 89.08085825 55.18881541 91.98046875 59.7265625 C92.629552 60.75221313 92.629552 60.75221313 93.29174805 61.79858398 C94.39676935 63.52611476 95.5253452 65.23852036 96.65625 66.94921875 C98.33892256 70.76947243 98.06310112 73.00844902 97 77 C94.73117362 78.13441319 93.47186643 78.13486828 90.95205688 78.15390015 C89.68185951 78.16680084 89.68185951 78.16680084 88.38600159 78.17996216 C87.45505173 78.18422211 86.52410187 78.18848206 85.56494141 78.19287109 C84.5859639 78.20104858 83.60698639 78.20922607 82.5983429 78.21765137 C79.34942239 78.24252297 76.10054555 78.25902424 72.8515625 78.2734375 C71.74410046 78.27876118 70.63663841 78.28408485 69.49561691 78.28956985 C63.63608237 78.31630669 57.7765692 78.33568156 51.91699219 78.35009766 C45.85481099 78.36676401 39.79317149 78.41155733 33.73119545 78.4624691 C29.07812856 78.4960656 24.42519156 78.50766667 19.77201462 78.51332474 C17.53682684 78.5200562 15.30164817 78.53532703 13.06657791 78.55921555 C9.94188017 78.59071186 6.81866138 78.59092717 3.69384766 78.58349609 C2.30349556 78.6081041 2.30349556 78.6081041 0.88505554 78.63320923 C-5.33476381 78.57251337 -5.33476381 78.57251337 -8.58467102 75.77558899 C-10.08250097 72.83820809 -10.46868195 71.26984389 -10.33911133 68.00708008 C-10.3024234 67.04275055 -10.26573547 66.07842102 -10.22793579 65.08486938 C-9.82737921 59.66376053 -9.24859405 54.28027969 -8.57421875 48.88671875 C-8.42596146 47.6735347 -8.27770416 46.46035065 -8.12495422 45.21040344 C-7.81145737 42.66449825 -7.49444504 40.11902369 -7.17407227 37.57397461 C-6.68693243 33.68296658 -6.2189345 29.7899569 -5.75195312 25.89648438 C-5.44386769 23.41391835 -5.13466182 20.93149106 -4.82421875 18.44921875 C-4.68658615 17.28976242 -4.54895355 16.13030609 -4.40715027 14.93571472 C-3.68947568 9.36945571 -2.99126191 4.79539803 0 0 Z " fill="#008271" transform="translate(698,423)"/>
<path d="M0 0 C1.55208664 -0.01029488 1.55208664 -0.01029488 3.13552856 -0.02079773 C6.55346425 -0.03908824 9.97094192 -0.03522488 13.38891602 -0.02954102 C15.76636403 -0.03410172 18.14381072 -0.03940696 20.52125549 -0.04542542 C25.50364539 -0.05436096 30.48587503 -0.05192821 35.46826172 -0.04199219 C41.85184707 -0.03050214 48.23487931 -0.05071291 54.61839199 -0.07990932 C59.52805594 -0.09825891 64.43758705 -0.09798129 69.34727669 -0.0922718 C71.70079385 -0.09211844 74.05431993 -0.09817532 76.40780449 -0.11056328 C79.69930557 -0.12544738 82.98978093 -0.11481414 86.28125 -0.09765625 C87.25235214 -0.10732422 88.22345428 -0.11699219 89.22398376 -0.12695312 C94.89676775 -0.06505957 98.22769676 0.57358543 102.70532227 4.40405273 C107.66702392 10.03625461 107.66702392 10.03625461 107.76000977 13.35717773 C107.29128148 19.348748 106.07504091 22.23757682 101.70532227 26.40405273 C98.7477425 28.20223642 96.56213534 28.65584505 93.11988831 28.66474915 C92.20447266 28.67183395 91.28905701 28.67891876 90.34590149 28.68621826 C88.85041023 28.68250214 88.85041023 28.68250214 87.32470703 28.67871094 C85.74116928 28.68637733 85.74116928 28.68637733 84.12564087 28.69419861 C80.63261257 28.70810956 77.13978124 28.70713672 73.64672852 28.70483398 C71.22061591 28.70872 68.79450398 28.71305447 66.36839294 28.71781921 C61.28170568 28.72528461 56.19508782 28.72498774 51.10839844 28.71972656 C44.58690074 28.71393067 38.06568693 28.73086456 31.54423618 28.75407124 C26.53340491 28.76879593 21.52264221 28.769682 16.51179314 28.76656151 C14.10721207 28.76707533 11.70262722 28.77232435 9.29806709 28.78237343 C5.93696717 28.79469608 2.57642291 28.78797084 -0.78466797 28.77636719 C-1.77963791 28.78401093 -2.77460785 28.79165466 -3.79972839 28.79953003 C-8.76999413 28.76156265 -12.28430062 28.69590355 -16.29467773 25.40405273 C-19.39172605 21.58032269 -20.6377635 17.60960929 -20.29467773 12.71655273 C-19.428568 7.68445519 -17.24385066 4.97294863 -13.29747009 1.79649353 C-8.88621452 -0.24907322 -4.8075897 -0.02223974 0 0 Z " fill="#F9FCFC" transform="translate(156.294677734375,460.595947265625)"/>
<path d="M0 0 C1.65212746 -0.01902626 1.65212746 -0.01902626 3.33763123 -0.03843689 C4.51793411 -0.03550125 5.698237 -0.03256561 6.91430664 -0.02954102 C8.74681725 -0.03740379 8.74681725 -0.03740379 10.61634827 -0.04542542 C13.19767497 -0.05184352 15.77903093 -0.0505114 18.36035156 -0.04199219 C22.30660167 -0.03348577 26.25140274 -0.06224414 30.19750977 -0.09399414 C32.70727496 -0.09560635 35.21704271 -0.09502825 37.72680664 -0.09204102 C38.9050853 -0.10327499 40.08336395 -0.11450897 41.29734802 -0.12608337 C47.61809688 -0.0724022 51.6169353 0.08564317 56.38696289 4.40405273 C59.5498052 8.09403543 59.90688916 11.48259128 59.74243164 16.18920898 C59.03609261 20.59024449 56.57908046 23.35643426 53.32446289 26.21655273 C49.94725887 28.28645197 47.14523723 28.53951151 43.27636719 28.58105469 C42.23486008 28.59388992 41.19335297 28.60672516 40.12028503 28.61994934 C38.99528091 28.62733627 37.87027679 28.63472321 36.71118164 28.64233398 C34.9743084 28.6544416 34.9743084 28.6544416 33.2023468 28.66679382 C30.75031023 28.68063128 28.29825442 28.69135494 25.84619141 28.69921875 C22.09964467 28.716437 18.35397903 28.7603285 14.60766602 28.80444336 C12.22551105 28.81456987 9.84334858 28.8230861 7.46118164 28.82983398 C5.7827845 28.85609612 5.7827845 28.85609612 4.07048035 28.88288879 C-2.15152615 28.86556859 -5.90836189 28.62026703 -10.61303711 24.40405273 C-13.92544947 20.56862789 -15.28604352 17.5806682 -14.99975586 12.42749023 C-14.13774892 7.91719129 -12.07317708 4.46967002 -8.31932068 1.73008728 C-5.29114612 0.24633143 -3.35489578 0.01877156 0 0 Z " fill="#FAFDFC" transform="translate(195.613037109375,527.595947265625)"/>
<path d="M0 0 C0.99 0.33 1.98 0.66 3 1 C0.36 3.64 -2.28 6.28 -5 9 C-5.33 8.01 -5.66 7.02 -6 6 C-4.02 4.02 -2.04 2.04 0 0 Z " fill="#06796A" transform="translate(674,595)"/>
<path d="M0 0 C2.125 -0.4375 2.125 -0.4375 5 0 C7.33462754 2.083122 9.27975181 4.38711444 11 7 C11 7.66 11 8.32 11 9 C10.34 9 9.68 9 9 9 C8.401875 8.05125 7.80375 7.1025 7.1875 6.125 C4.89535212 2.85050303 3.75819708 2.04394363 0 1 C0 0.67 0 0.34 0 0 Z " fill="#0A7B6A" transform="translate(749,424)"/>
</svg>
